<svg width="16" height="16" viewBox="0 0 16 16" fill="none" xmlns="http://www.w3.org/2000/svg">
<path d="M3.88275 12.0188C3.75753 11.95 3.66675 11.8936 3.66675 11.7496V1.4032L10.3567 5.40401V15.7535L3.88275 12.0188Z" fill="#75BF05"/>
<path d="M12.451 4.19566L5.91134 0.420246C5.71098 0.304417 5.38854 0.304417 5.18819 0.420246L3.81701 1.21227C3.61666 1.3281 3.61666 1.5128 3.81701 1.62863L10.3567 5.40405L12.451 4.19253V4.19566Z" fill="#69A312"/>
<path d="M10.579 15.2934L12.2444 14.3292V14.6642L12.451 14.5452V4.19568L10.3567 5.40406V15.7567L10.579 15.6284V15.2934Z" fill="#547326"/>
<path d="M12.2412 14.6672L11.1518 14.038L10.5695 5.28817L4.1394 1.56597L5.81737 0.608032L12.2412 4.31771V14.6672Z" fill="#547326"/>
<path d="M12.2412 14.6672L11.1518 14.038L10.5695 5.28817L4.1394 1.56597L5.81737 0.608032L12.2412 4.31771V14.6672Z" fill="black" fill-opacity="0.2"/>
<path d="M12.1662 14.4701L10.5758 15.3905L10.5696 5.28826V5.10982L11.108 4.7999L11.4273 4.6152L11.7936 4.40232L12.0128 4.2771L12.163 4.36788V4.37728L12.1662 14.4701Z" fill="#D8D8D8"/>
<g style="mix-blend-mode:multiply" opacity="0.1">
<path d="M10.5758 5.27884L11.2989 4.85935L4.9815 1.21228L4.26147 1.62864L10.5758 5.27884Z" fill="#D8D8D8"/>
</g>
<path d="M6.12735 0.880423L5.81117 0.698853L4.2146 1.61923L4.53078 1.8008L6.12735 0.880423Z" fill="#F7A500"/>
<g style="mix-blend-mode:multiply" opacity="0.2">
<path d="M10.5758 15.3904L11.2646 14.9897L11.2614 4.71216L10.5696 5.10974L10.5758 15.3904Z" fill="#E9E9E9"/>
</g>
<path d="M12.1724 4.37103L12.163 4.37729L11.9564 4.49938L11.5901 4.706L11.2708 4.8907L10.5789 5.29141L10.5696 5.28828L4.53076 1.80087L5.22261 1.40329L5.54192 1.21859L5.90819 1.00571L6.12733 0.880493L12.0127 4.27712L12.163 4.3679L12.1724 4.37103Z" fill="#E9E9E9"/>
<g style="mix-blend-mode:multiply" opacity="0.1">
<path d="M10.5789 5.29445L11.2708 4.89374L5.22261 1.4032L4.53076 1.80078L10.5789 5.29445Z" fill="#D8D8D8"/>
</g>
<g style="mix-blend-mode:multiply" opacity="0.1">
<path d="M11.9564 4.49933L11.5902 4.70907L5.54199 1.21853L5.90826 1.00879L11.9564 4.49933Z" fill="#D8D8D8"/>
</g>
<g style="mix-blend-mode:multiply">
<path d="M4.48999 2.06693L5.77038 1.32812L6.15543 1.55039L4.87191 2.2892L4.86878 2.28607V8.02433L4.71852 7.89284V2.19841L4.48999 2.06693Z" fill="#DCDBE4"/>
</g>
<path d="M4.79072 8.02427V2.15453L4.25853 1.8446L4.18652 7.49834L4.23348 7.58913L4.49958 7.25729L4.71871 7.89279L4.79072 8.02427Z" fill="#B30505"/>
<path d="M6.09928 1.51904L6.02101 1.47208L4.72497 2.22341L4.18652 1.91661L5.56396 1.12146L6.09928 1.34686V1.51904Z" fill="#AD1809"/>
<path d="M4.71871 7.89276V2.12633L4.18652 1.81641V7.49832L4.45262 7.16648L4.71871 7.89276Z" fill="#F00000"/>
<path d="M6.09928 1.34683L4.72497 2.14199L4.18652 1.83519L5.56396 1.04004L6.09928 1.34683Z" fill="#F00000"/>
</svg>
