<svg width="24" height="20" viewBox="0 0 24 20" fill="none" xmlns="http://www.w3.org/2000/svg">
<path fill-rule="evenodd" clip-rule="evenodd" d="M9.6 0.399975C14.9019 0.399975 19.2 4.69804 19.2 9.99998C19.2 10.0245 19.1999 10.0489 19.1997 10.0734V19.6L9.6 19.6C9.59991 19.6 9.59982 19.6 9.59972 19.6C4.29792 19.5998 0 15.3018 0 9.99998C0 4.69804 4.29807 0.399975 9.6 0.399975Z" fill="#1BBBF5"/>
<ellipse cx="19.1999" cy="5.20002" rx="4.8" ry="4.8" fill="#1A6FED"/>
<path d="M15.36 2.31946C17.6917 4.0709 19.1999 6.85936 19.1999 10.0001C16.5489 10.0001 14.3999 7.85104 14.3999 5.20008C14.3999 4.11922 14.7572 3.1218 15.36 2.31946Z" fill="#0056D6"/>
</svg>
